<?xml version="1.0" encoding="UTF-8" standalone="no"?><!DOCTYPE svg PUBLIC "-//W3C//DTD SVG 1.1//EN" "http://www.w3.org/Graphics/SVG/1.1/DTD/svg11.dtd"><svg width="100%" height="100%" viewBox="0 0 4500 4500" version="1.1" xmlns="http://www.w3.org/2000/svg" xmlns:xlink="http://www.w3.org/1999/xlink" xml:space="preserve" xmlns:serif="http://www.serif.com/" style="fill-rule:evenodd;clip-rule:evenodd;stroke-linejoin:round;stroke-miterlimit:2;"><g><g><path d="M1429.687,3259.243c-742.688,0 -1345.657,-602.969 -1345.657,-1345.657l1345.657,1345.657Z" style="fill:#23262a;"/><path d="M2775.344,1913.586c0,742.688 -602.969,1345.657 -1345.657,1345.657l1345.657,-1345.657Z" style="fill:#23262a;"/></g><g><g><path d="M3064.064,1240.757c742.688,0 1345.657,602.969 1345.657,1345.657l-1345.657,-1345.657Z" style="fill:#23262a;"/><path d="M1718.407,2586.414c0,-742.688 602.969,-1345.657 1345.657,-1345.657l-1345.657,1345.657Z" style="fill:#23262a;"/><rect x="3736.893" y="1643.155" width="135.215" height="135.215" style="fill:#02ffb4;"/><rect x="3736.893" y="1778.37" width="135.215" height="135.215" style="fill:#02ffb4;"/><rect x="3872.108" y="1778.37" width="135.215" height="135.215" style="fill:#02ffb4;"/></g></g><g><rect x="621.643" y="2721.63" width="135.215" height="135.215" style="fill:#02ffb4;"/><rect x="621.643" y="2586.414" width="135.215" height="135.215" style="fill:#02ffb4;"/><rect x="486.427" y="2586.414" width="135.215" height="135.215" style="fill:#02ffb4;"/></g></g></svg>
